<?xml version="1.0" encoding="UTF-8" standalone="no"?>
<!DOCTYPE svg PUBLIC "-//W3C//DTD SVG 1.1//EN" "http://www.w3.org/Graphics/SVG/1.1/DTD/svg11.dtd">
<svg width="100%" height="100%" viewBox="0 0 1080 1080" version="1.1" xmlns="http://www.w3.org/2000/svg" xmlns:xlink="http://www.w3.org/1999/xlink" xml:space="preserve" xmlns:serif="http://www.serif.com/" style="fill-rule:evenodd;clip-rule:evenodd;stroke-linejoin:round;stroke-miterlimit:2;">
    <rect id="Artboard1" x="0" y="0" width="1080" height="1080" style="fill:none;"/>
    <g id="Artboard11" serif:id="Artboard1">
        <g transform="matrix(1.69292,0,0,1.70318,-374.176,-124.242)">
            <g transform="matrix(1,0,0,1,0,-150)">
                <path d="M350.812,350.812L540,540L729.188,350.812L729.188,729.188L350.812,729.188L350.812,350.812Z"/>
            </g>
            <g transform="matrix(1.17177,0,0,1.17177,-92.7534,-146.355)">
                <path d="M430.812,619.188L430.812,430.812L540,540L649.188,430.812L649.188,619.188L430.812,619.188Z" style="fill:white;"/>
            </g>
            <g transform="matrix(0.419698,0,0,0.419698,313.363,313.363)">
                <path d="M350.812,633.372L350.812,350.812L540,540L729.188,350.812L729.188,633.372L350.812,633.372Z"/>
            </g>
        </g>
    </g>
</svg>
